<svg id="Layer_1" data-name="Layer 1" xmlns="http://www.w3.org/2000/svg" viewBox="0 0 56.9 56.9"><defs><style>.cls-1{fill:#fff;}</style></defs><title>YFU_logo</title><g id="Figurative_Mark" data-name="Figurative Mark"><path d="M91.7,46.2a.92.92,0,0,1,.1,1c-1.3,2.2-2.3,5.1-1.8,6,0,.1.2.3.8.3,3.1,0,5.8-5.1,6.6-7.1a.88.88,0,0,1,1.2-.5.91.91,0,0,1,.6,1.1l-1.8,6.6a49.07,49.07,0,0,1,4.1-3.3c.1-.1.2-.1.3-.2-.2-.1-.3-.1-.5-.2h-.2a.83.83,0,0,1-.6-1.1.8.8,0,0,1,1.1-.6c.1,0,.1,0,.2.1a4.25,4.25,0,0,0,1.1.2c.7-2.1,1.5-4.4,2.5-7.1a4.65,4.65,0,0,1,.3-.9c1.5-4.3,3.1-6.7,4.7-7.2a2.36,2.36,0,0,1,2,.3,1.78,1.78,0,0,1,.7,1.5c0,2.6-3.5,8.8-7,13.2a16.88,16.88,0,0,0,5.4-2.2,1,1,0,0,1,1.4,1.3c-1.1,1.8-2.3,4.8-1.7,5.9.1.1.2.4,1.1.4,3.2,0,5.5-4.6,6.3-6.8a.77.77,0,0,0,.1-.3.95.95,0,1,1,1.8.6.49.49,0,0,1-.1.3c-.7,2.1-1.3,5.2-.5,6.1.2.3.7.3,1.3.1a103.45,103.45,0,0,0,10.7-3.2,28.3,28.3,0,0,0-56.6.5c4.8-1.5,15.4-4.9,15.6-4.9C91,45.8,91.5,45.9,91.7,46.2Z" transform="translate(-75 -22.8)"/><path d="M118.4,54.8a3.46,3.46,0,0,1-.8-2.4,6.9,6.9,0,0,1-5.3,3.1,2.8,2.8,0,0,1-2.7-1.3c-.6-1.1-.5-2.7.4-5a.1.1,0,0,1,.1-.1,15.85,15.85,0,0,1-5.3,1.3,6.69,6.69,0,0,1,.7,1.7c1,3.8-1,9.3-2.9,11.2a2.06,2.06,0,0,1-2,.7,1.14,1.14,0,0,1-.8-.7c-.5-.9-.5-3,1.9-10.5a63.2,63.2,0,0,0-5.1,4.3c-.1.5-.3,1-.4,1.5a13,13,0,0,0-.3,1.5c-.8,3.8-1.8,7.7-3.9,9a2.82,2.82,0,0,1-1.5.4,1.7,1.7,0,0,1-.7-.1,2.15,2.15,0,0,1-1.6-1.7c-.4-2.1,1.3-6.2,6.7-11.5.3-1,.6-2.1.9-3.2a6.8,6.8,0,0,1-4.9,2.7,3,3,0,0,1-2.5-1.2c-.9-1.5,0-4,.8-5.8-3.6,1.1-10.6,3.4-13.9,4.4a28.34,28.34,0,0,0,56.6-.4c-3.2,1.1-6.7,2.2-10.2,3.1A4.14,4.14,0,0,1,118.4,54.8Z" transform="translate(-75 -22.8)"/><path class="cls-1" d="M131.8,51v-.6h0a103.45,103.45,0,0,1-10.7,3.2c-.7.2-1.1.1-1.3-.1-.8-.9-.2-4,.5-6.1a.77.77,0,0,0,.1-.3.95.95,0,0,0-1.8-.6.77.77,0,0,1-.1.3c-.8,2.1-3.1,6.8-6.3,6.8-.9,0-1-.3-1.1-.4-.6-1.1.7-4.1,1.7-5.9a.93.93,0,0,0-.2-1.2,1,1,0,0,0-1.2-.1,16.88,16.88,0,0,1-5.4,2.2c3.5-4.3,7-10.6,7-13.2a1.64,1.64,0,0,0-.7-1.5,2.36,2.36,0,0,0-2-.3c-1.6.5-3.2,2.9-4.7,7.2a4.65,4.65,0,0,0-.3.9c-1,2.7-1.8,5.1-2.5,7.1a4.25,4.25,0,0,1-1.1-.2c-.1,0-.1,0-.2-.1a1,1,0,0,0-1.1.6.86.86,0,0,0,.6,1.1h.2c.2.1.3.1.5.2-.1.1-.2.1-.3.2a49.07,49.07,0,0,0-4.1,3.3l1.8-6.6a.86.86,0,0,0-.6-1.1,1,1,0,0,0-1.2.5c-.8,2-3.5,7.1-6.6,7.1-.7,0-.8-.2-.8-.3-.5-.9.5-3.8,1.8-6a.76.76,0,0,0-.1-1,.91.91,0,0,0-1-.3c-.1,0-10.8,3.5-15.6,4.9h0V51a8.6,8.6,0,0,0,.1,1.6h0c3.3-1,10.4-3.3,13.9-4.4-.8,1.8-1.6,4.3-.8,5.8a2.52,2.52,0,0,0,2.5,1.2,6.8,6.8,0,0,0,4.9-2.7c-.3,1.1-.6,2.2-.9,3.2C89.2,61,87.5,65,88,67.2a2,2,0,0,0,1.6,1.7,1.7,1.7,0,0,0,.7.1,2.82,2.82,0,0,0,1.5-.4c2.1-1.3,3.1-5.1,3.9-9,.1-.6.3-1.2.3-1.5a15.46,15.46,0,0,0,.4-1.5,63.2,63.2,0,0,1,5.1-4.3c-2.4,7.5-2.3,9.6-1.9,10.5a1.34,1.34,0,0,0,.8.7,2.17,2.17,0,0,0,2-.7c1.9-1.8,3.9-7.3,2.9-11.2a8.65,8.65,0,0,0-.7-1.7,15.85,15.85,0,0,0,5.3-1.3.1.1,0,0,1-.1.1c-.9,2.2-1,3.9-.4,5a2.8,2.8,0,0,0,2.7,1.3c2.3,0,4-1.4,5.3-3.1a4.29,4.29,0,0,0,.8,2.4c.5.6,1.4,1.1,3.2.7a101.27,101.27,0,0,0,10.2-3.1h0C131.8,51.9,131.8,51.5,131.8,51Zm-41,16.3a.88.88,0,0,1-.7.1s-.1,0-.2-.3c-.2-.9.5-3.5,4-7.4C93.3,61.9,92.3,66.4,90.8,67.3Zm10.4-5.5c0-.9.3-3.1,2.1-8.6a2.35,2.35,0,0,0,.2-.8,7.77,7.77,0,0,1,.2,1.6A13.27,13.27,0,0,1,101.2,61.8Zm6-19.9a4.65,4.65,0,0,1,.3-.9c1.5-4.1,2.8-5.8,3.5-6h.2c.1.6-.5,2.9-3.1,7-.8,1.2-1.6,2.4-2.4,3.5C106.4,44.1,106.8,42.8,107.2,41.9Z" transform="translate(-75 -22.8)"/><path d="M89.9,67.1c.1.3.1.3.2.3a.82.82,0,0,0,.7-.1c1.5-1,2.5-5.4,3-7.6C90.3,63.7,89.7,66.2,89.9,67.1Z" transform="translate(-75 -22.8)"/><path d="M103.3,53.2c-1.7,5.5-2.1,7.7-2.1,8.6a12.76,12.76,0,0,0,2.5-7.8,7.77,7.77,0,0,0-.2-1.6C103.4,52.7,103.4,52.9,103.3,53.2Z" transform="translate(-75 -22.8)"/><path d="M111.3,35h-.2c-.7.2-2.1,1.9-3.5,6a4.65,4.65,0,0,0-.3.9c-.3.9-.8,2.2-1.3,3.7.8-1.1,1.6-2.3,2.4-3.5C110.8,37.9,111.4,35.6,111.3,35Z" transform="translate(-75 -22.8)"/></g></svg>