<svg id="Layer_1" data-name="Layer 1" xmlns="http://www.w3.org/2000/svg" viewBox="0 0 56.69 56.69">
  <defs>
    <style>
      .cls-1 {
        fill: #fff;
      }

      .cls-2 {
        fill: #652869;
      }
    </style>
  </defs>
  <title>gradient_logo</title>
  <path class="cls-1" d="M643.8,503.42a110.44,110.44,0,0,1-10.67,3.24c-.66.16-1.11.11-1.33-.14-.8-.88-.21-4,.48-6.09l.11-.33a.92.92,0,0,0-.58-1.16.93.93,0,0,0-1.17.56l-.11.33c-.77,2.14-3.09,6.77-6.3,6.77-.86,0-1-.3-1.09-.4-.6-1.06.68-4.15,1.73-5.91a.93.93,0,0,0-1.32-1.24,15.93,15.93,0,0,1-5.44,2.23c3.52-4.33,7-10.59,7-13.15a1.81,1.81,0,0,0-.69-1.54,2.16,2.16,0,0,0-2-.33c-1.59.49-3.19,2.91-4.73,7.17-.07.21-.18.5-.31.86-1,2.7-1.83,5.06-2.53,7.13a8.71,8.71,0,0,1-1.11-.22l-.18-.05a.92.92,0,0,0-1.13.64.93.93,0,0,0,.62,1.14l.17,0c.17.06.33.12.48.19l-.28.22c-1.52,1.13-2.9,2.24-4.13,3.3.91-3.34,1.76-6.58,1.78-6.63a.93.93,0,0,0-1.76-.58c-.78,2-3.5,7.13-6.58,7.13-.67,0-.8-.23-.84-.3-.53-.92.54-3.84,1.82-6a.94.94,0,0,0-1.09-1.36c-.11,0-10.79,3.5-15.56,4.95v.3c0,.53,0,1.06.06,1.58v0c1.66-.5,4.26-1.32,6.88-2.15l7.06-2.26c-.82,1.81-1.64,4.32-.78,5.82a2.59,2.59,0,0,0,2.45,1.24,6.8,6.8,0,0,0,4.88-2.66c-.29,1.09-.6,2.2-.88,3.22-5.47,5.31-7.16,9.35-6.73,11.49a2.11,2.11,0,0,0,1.56,1.73,2.58,2.58,0,0,0,.68.08,2.67,2.67,0,0,0,1.46-.43c2.07-1.28,3.07-5.12,3.91-9,.14-.62.26-1.16.35-1.48s.27-.94.41-1.46c1.4-1.32,3.07-2.76,5.07-4.3-2.36,7.48-2.34,9.58-1.89,10.46a1.39,1.39,0,0,0,.84.72,2,2,0,0,0,2-.71c1.88-1.84,3.93-7.34,2.92-11.18a5.82,5.82,0,0,0-.7-1.65A15.48,15.48,0,0,0,622,502a.69.69,0,0,0-.05.13c-.89,2.24-1,3.87-.39,5a2.85,2.85,0,0,0,2.7,1.34,7,7,0,0,0,5.34-3.05,3.8,3.8,0,0,0,.85,2.36,3,3,0,0,0,3.15.69c3.48-.86,7-1.93,10.21-3.06,0-.45,0-.91,0-1.37C643.81,503.82,643.8,503.62,643.8,503.42Zm-41,16.89a.86.86,0,0,1-.73.12s-.13,0-.18-.3c-.18-.9.47-3.48,4-7.45C605.33,515,604.33,519.35,602.79,520.31Zm10.42-5.53c0-.89.34-3.12,2.07-8.61.08-.25.17-.51.25-.77a6.48,6.48,0,0,1,.21,1.61A13.18,13.18,0,0,1,613.21,514.78Zm6-19.85c.13-.37.24-.66.32-.87,1.48-4.1,2.83-5.81,3.53-6l.11,0a.3.3,0,0,1,.14,0c.09.57-.51,2.86-3,7-.77,1.24-1.58,2.44-2.39,3.54C618.38,497.11,618.85,495.83,619.18,494.93Z" transform="translate(-587.12 -475.68)"/>
  <path class="cls-1" d="M615.74,507a13.18,13.18,0,0,1-2.53,7.77c0-.89.34-3.12,2.07-8.61.08-.25.17-.51.25-.77A6.48,6.48,0,0,1,615.74,507Z" transform="translate(-587.12 -475.68)"/>
  <path class="cls-1" d="M623.28,488.05c.09.57-.51,2.86-3,7-.77,1.24-1.58,2.44-2.39,3.54.54-1.51,1-2.79,1.34-3.69.13-.37.24-.66.32-.87,1.48-4.1,2.83-5.81,3.53-6l.11,0A.3.3,0,0,1,623.28,488.05Z" transform="translate(-587.12 -475.68)"/>
  <path class="cls-2" d="M605.83,512.68c-.5,2.27-1.5,6.67-3,7.63a.86.86,0,0,1-.73.12s-.13,0-.18-.3C601.7,519.23,602.35,516.65,605.83,512.68Z" transform="translate(-587.12 -475.68)"/>
  <path class="cls-2" d="M615.28,506.17c-1.73,5.49-2,7.72-2.07,8.61a13.18,13.18,0,0,0,2.53-7.77,6.48,6.48,0,0,0-.21-1.61C615.45,505.66,615.36,505.91,615.28,506.17Z" transform="translate(-587.12 -475.68)"/>
  <g>
    <path class="cls-2" d="M603.69,499.24a.94.94,0,0,1,.08,1.05c-1.28,2.17-2.35,5.09-1.82,6,0,.07.17.3.84.3,3.08,0,5.8-5.14,6.58-7.13a.93.93,0,0,1,1.76.58c0,.05-.87,3.29-1.78,6.63,1.23-1.06,2.61-2.17,4.13-3.3l.28-.22c-.15-.07-.31-.13-.48-.19l-.17,0a.93.93,0,0,1-.62-1.14.92.92,0,0,1,1.13-.64l.18.05a8.71,8.71,0,0,0,1.11.22c.7-2.07,1.54-4.43,2.53-7.13.13-.36.24-.65.31-.86,1.54-4.26,3.14-6.68,4.73-7.17a2.16,2.16,0,0,1,2,.33,1.81,1.81,0,0,1,.69,1.54c0,2.56-3.5,8.82-7,13.15a15.93,15.93,0,0,0,5.44-2.23.93.93,0,0,1,1.32,1.24c-1,1.76-2.33,4.85-1.73,5.91.06.1.23.4,1.09.4,3.21,0,5.53-4.63,6.3-6.77l.11-.33a.93.93,0,0,1,1.17-.56.92.92,0,0,1,.58,1.16l-.11.33c-.69,2.05-1.28,5.21-.48,6.09.22.25.67.3,1.33.14a107.69,107.69,0,0,0,10.67-3.25,28.34,28.34,0,0,0-56.68.47c4.77-1.45,15.45-4.91,15.56-4.95A1,1,0,0,1,603.69,499.24Z" transform="translate(-587.12 -475.68)"/>
    <path class="cls-2" d="M630.42,507.76a3.8,3.8,0,0,1-.85-2.36,7,7,0,0,1-5.34,3.05,2.85,2.85,0,0,1-2.7-1.34c-.63-1.11-.5-2.74.39-5L622,502a15.48,15.48,0,0,1-5.34,1.33,5.82,5.82,0,0,1,.7,1.65c1,3.84-1,9.34-2.92,11.18a2,2,0,0,1-2,.71,1.39,1.39,0,0,1-.84-.72c-.45-.88-.47-3,1.89-10.46-2,1.54-3.67,3-5.07,4.3-.14.52-.28,1-.41,1.46s-.21.86-.35,1.48c-.84,3.83-1.84,7.67-3.91,9a2.67,2.67,0,0,1-1.46.43,2.58,2.58,0,0,1-.68-.08,2.11,2.11,0,0,1-1.56-1.73c-.43-2.14,1.26-6.18,6.73-11.49.28-1,.59-2.13.88-3.22a6.8,6.8,0,0,1-4.88,2.66,2.59,2.59,0,0,1-2.45-1.24c-.86-1.5,0-4,.78-5.82-3.56,1.15-10.62,3.41-13.94,4.41a28.34,28.34,0,0,0,56.6-.41c-3.18,1.13-6.73,2.2-10.21,3.06A3,3,0,0,1,630.42,507.76Z" transform="translate(-587.12 -475.68)"/>
    <path class="cls-2" d="M623.28,488.05a.3.3,0,0,0-.14,0l-.11,0c-.7.22-2,1.93-3.53,6-.08.21-.19.5-.32.87-.33.9-.8,2.18-1.34,3.69.81-1.1,1.62-2.3,2.39-3.54C622.77,490.91,623.37,488.62,623.28,488.05Z" transform="translate(-587.12 -475.68)"/>
  </g>
</svg>
