<svg id="Layer_1" data-name="Layer 1" xmlns="http://www.w3.org/2000/svg" xmlns:xlink="http://www.w3.org/1999/xlink" viewBox="0 0 57.44 57.3">
  <defs>
    <style>
      .cls-1 {
        fill: #fff;
      }

      .cls-2 {
        fill: url(#linear-gradient);
      }

      .cls-3 {
        fill: url(#linear-gradient-2);
      }

      .cls-4 {
        fill: url(#linear-gradient-3);
      }
    </style>
    <linearGradient id="linear-gradient" x1="391.36" y1="582.36" x2="448.8" y2="582.36" gradientUnits="userSpaceOnUse">
      <stop offset="0.22" stop-color="#ed2b4f"/>
      <stop offset="0.81" stop-color="#682f75"/>
    </linearGradient>
    <linearGradient id="linear-gradient-2" x1="391.42" y1="608.29" x2="448.78" y2="608.29" xlink:href="#linear-gradient"/>
    <linearGradient id="linear-gradient-3" x1="422.49" y1="584.48" x2="428.01" y2="584.48" xlink:href="#linear-gradient"/>
  </defs>
  <title>gradient_logo</title>
  <circle class="cls-1" cx="28.81" cy="29.02" r="28.27"/>
  <g>
    <path class="cls-2" d="M408.16,590.46a.94.94,0,0,1,.07,1.06c-1.3,2.2-2.37,5.15-1.84,6.08,0,.07.18.31.85.31,3.12,0,5.87-5.2,6.67-7.21a.94.94,0,0,1,1.78.59c0,.05-.88,3.32-1.8,6.69,1.25-1.07,2.64-2.18,4.19-3.33l.28-.22a3.56,3.56,0,0,0-.49-.19l-.17,0a.93.93,0,0,1-.63-1.15,1,1,0,0,1,1.15-.65l.18.06a8.86,8.86,0,0,0,1.12.22c.72-2.09,1.57-4.48,2.57-7.2.13-.37.24-.66.32-.88,1.56-4.3,3.17-6.74,4.79-7.24a2.17,2.17,0,0,1,2,.34,1.79,1.79,0,0,1,.69,1.54c0,2.6-3.54,8.92-7.11,13.3a16.61,16.61,0,0,0,5.51-2.25,1,1,0,0,1,1.18.09.93.93,0,0,1,.16,1.16c-1.07,1.77-2.36,4.9-1.75,6,.05.1.23.41,1.1.41,3.26,0,5.61-4.68,6.38-6.85l.12-.33a.94.94,0,0,1,1.77.61l-.11.33c-.7,2.07-1.3,5.26-.49,6.15.23.26.69.31,1.35.14a112.5,112.5,0,0,0,10.81-3.27,28.72,28.72,0,0,0-57.44.47c4.83-1.47,15.66-5,15.77-5A1,1,0,0,1,408.16,590.46Z" transform="translate(-391.36 -566.65)"/>
    <path class="cls-3" d="M435.24,599.08a3.81,3.81,0,0,1-.85-2.39,7.1,7.1,0,0,1-5.42,3.09,2.9,2.9,0,0,1-2.74-1.36c-.63-1.12-.5-2.77.4-5l.05-.13a15.61,15.61,0,0,1-5.41,1.34,6.14,6.14,0,0,1,.71,1.67c1,3.87-1.06,9.44-3,11.3a2,2,0,0,1-2,.71,1.39,1.39,0,0,1-.86-.72c-.46-.89-.48-3,1.91-10.58-2,1.56-3.71,3-5.13,4.35q-.21.79-.42,1.47c-.09.33-.21.87-.35,1.5-.85,3.87-1.86,7.75-4,9.05a2.81,2.81,0,0,1-1.49.44,2.72,2.72,0,0,1-.69-.09,2.11,2.11,0,0,1-1.57-1.75c-.44-2.16,1.27-6.24,6.81-11.61.29-1,.6-2.15.9-3.25a6.93,6.93,0,0,1-4.95,2.69,2.61,2.61,0,0,1-2.48-1.26c-.87-1.52,0-4,.79-5.88-3.61,1.16-10.77,3.45-14.13,4.46a28.73,28.73,0,0,0,57.36-.42c-3.22,1.14-6.82,2.22-10.34,3.1A3,3,0,0,1,435.24,599.08Z" transform="translate(-391.36 -566.65)"/>
    <path class="cls-4" d="M428,579.15a.56.56,0,0,0-.15,0l-.11,0c-.71.23-2.08,2-3.58,6.1-.08.21-.19.51-.32.88-.33.91-.81,2.21-1.36,3.73.83-1.11,1.65-2.32,2.42-3.58C427.49,582.05,428.1,579.73,428,579.15Z" transform="translate(-391.36 -566.65)"/>
  </g>
</svg>
